<svg width="50" height="50" viewBox="0 0 50 50" fill="none" xmlns="http://www.w3.org/2000/svg">
<path fill-rule="evenodd" clip-rule="evenodd" d="M35.2091 27.2727H27.2545V35.2273C27.2545 35.83 27.0151 36.4081 26.5889 36.8343C26.1627 37.2606 25.5846 37.5 24.9818 37.5C24.3791 37.5 23.801 37.2606 23.3748 36.8343C22.9485 36.4081 22.7091 35.83 22.7091 35.2273V27.2727H14.7545C14.1518 27.2727 13.5737 27.0333 13.1475 26.6071C12.7213 26.1808 12.4818 25.6028 12.4818 25C12.4818 24.3972 12.7213 23.8192 13.1475 23.3929C13.5737 22.9667 14.1518 22.7273 14.7545 22.7273H22.7091V14.7727C22.7091 14.17 22.9485 13.5919 23.3748 13.1657C23.801 12.7394 24.3791 12.5 24.9818 12.5C25.5846 12.5 26.1627 12.7394 26.5889 13.1657C27.0151 13.5919 27.2545 14.17 27.2545 14.7727V22.7273H35.2091C35.8119 22.7273 36.3899 22.9667 36.8162 23.3929C37.2424 23.8192 37.4818 24.3972 37.4818 25C37.4818 25.6028 37.2424 26.1808 36.8162 26.6071C36.3899 27.0333 35.8119 27.2727 35.2091 27.2727ZM25 0C11.1932 0 0 11.1932 0 25C0 38.8068 11.1932 50 25 50C38.8068 50 50 38.8068 50 25C50 11.1932 38.8068 0 25 0Z" fill="#7B61FF"/>
</svg>
